<mxfile host="app.diagrams.net" modified="2023-05-28T16:52:04.492Z" agent="Mozilla/5.0 (Windows NT 10.0; Win64; x64) AppleWebKit/537.36 (KHTML, like Gecko) Chrome/113.0.0.0 Safari/537.36" etag="ZuoLdnycm6pco_rJ2FGe" version="21.3.4" type="device">
  <diagram name="Page-1" id="Sja6eiZVYTR1pTCTvlDG">
    <mxGraphModel dx="819" dy="470" grid="1" gridSize="10" guides="1" tooltips="1" connect="1" arrows="1" fold="1" page="1" pageScale="1" pageWidth="827" pageHeight="1169" math="0" shadow="0">
      <root>
        <mxCell id="0" />
        <mxCell id="1" parent="0" />
        <mxCell id="DiJf0q9_dVt4Foqjv9Tr-1" value="" style="ellipse;html=1;shape=startState;fillColor=#000000;strokeColor=#ff0000;" vertex="1" parent="1">
          <mxGeometry x="250" y="410" width="30" height="30" as="geometry" />
        </mxCell>
        <mxCell id="DiJf0q9_dVt4Foqjv9Tr-2" value="" style="edgeStyle=orthogonalEdgeStyle;html=1;verticalAlign=bottom;endArrow=open;endSize=8;strokeColor=#ff0000;rounded=0;" edge="1" source="DiJf0q9_dVt4Foqjv9Tr-1" parent="1">
          <mxGeometry relative="1" as="geometry">
            <mxPoint x="265" y="500" as="targetPoint" />
          </mxGeometry>
        </mxCell>
        <mxCell id="DiJf0q9_dVt4Foqjv9Tr-12" value="Check Characters" style="rounded=1;whiteSpace=wrap;html=1;arcSize=40;fontColor=#000000;fillColor=#ffffc0;strokeColor=#ff0000;" vertex="1" parent="1">
          <mxGeometry x="78" y="583" width="120" height="40" as="geometry" />
        </mxCell>
        <mxCell id="DiJf0q9_dVt4Foqjv9Tr-13" value="" style="edgeStyle=orthogonalEdgeStyle;html=1;verticalAlign=bottom;endArrow=open;endSize=8;strokeColor=#ff0000;rounded=0;" edge="1" source="DiJf0q9_dVt4Foqjv9Tr-12" parent="1">
          <mxGeometry relative="1" as="geometry">
            <mxPoint x="138" y="683" as="targetPoint" />
          </mxGeometry>
        </mxCell>
        <mxCell id="DiJf0q9_dVt4Foqjv9Tr-14" value="Check Length" style="rounded=1;whiteSpace=wrap;html=1;arcSize=40;fontColor=#000000;fillColor=#ffffc0;strokeColor=#ff0000;" vertex="1" parent="1">
          <mxGeometry x="208" y="583" width="120" height="40" as="geometry" />
        </mxCell>
        <mxCell id="DiJf0q9_dVt4Foqjv9Tr-15" value="" style="edgeStyle=orthogonalEdgeStyle;html=1;verticalAlign=bottom;endArrow=open;endSize=8;strokeColor=#ff0000;rounded=0;" edge="1" source="DiJf0q9_dVt4Foqjv9Tr-14" parent="1">
          <mxGeometry relative="1" as="geometry">
            <mxPoint x="268" y="683" as="targetPoint" />
          </mxGeometry>
        </mxCell>
        <mxCell id="DiJf0q9_dVt4Foqjv9Tr-16" value="Check Position" style="rounded=1;whiteSpace=wrap;html=1;arcSize=40;fontColor=#000000;fillColor=#ffffc0;strokeColor=#ff0000;" vertex="1" parent="1">
          <mxGeometry x="339" y="583" width="120" height="40" as="geometry" />
        </mxCell>
        <mxCell id="DiJf0q9_dVt4Foqjv9Tr-17" value="" style="edgeStyle=orthogonalEdgeStyle;html=1;verticalAlign=bottom;endArrow=open;endSize=8;strokeColor=#ff0000;rounded=0;" edge="1" source="DiJf0q9_dVt4Foqjv9Tr-16" parent="1">
          <mxGeometry relative="1" as="geometry">
            <mxPoint x="399" y="683" as="targetPoint" />
          </mxGeometry>
        </mxCell>
        <mxCell id="DiJf0q9_dVt4Foqjv9Tr-18" value="" style="shape=line;html=1;strokeWidth=6;strokeColor=#ff0000;" vertex="1" parent="1">
          <mxGeometry x="120" y="500" width="290" height="10" as="geometry" />
        </mxCell>
        <mxCell id="DiJf0q9_dVt4Foqjv9Tr-19" value="" style="edgeStyle=orthogonalEdgeStyle;html=1;verticalAlign=bottom;endArrow=open;endSize=8;strokeColor=#ff0000;rounded=0;" edge="1" parent="1">
          <mxGeometry relative="1" as="geometry">
            <mxPoint x="265" y="580" as="targetPoint" />
            <mxPoint x="265" y="505" as="sourcePoint" />
            <Array as="points">
              <mxPoint x="265" y="510" />
            </Array>
          </mxGeometry>
        </mxCell>
        <mxCell id="DiJf0q9_dVt4Foqjv9Tr-20" value="" style="edgeStyle=orthogonalEdgeStyle;html=1;verticalAlign=bottom;endArrow=open;endSize=8;strokeColor=#ff0000;rounded=0;exitX=0.097;exitY=1;exitDx=0;exitDy=0;exitPerimeter=0;" edge="1" parent="1">
          <mxGeometry relative="1" as="geometry">
            <mxPoint x="138" y="580" as="targetPoint" />
            <mxPoint x="138.13" y="510" as="sourcePoint" />
          </mxGeometry>
        </mxCell>
        <mxCell id="DiJf0q9_dVt4Foqjv9Tr-21" value="" style="edgeStyle=orthogonalEdgeStyle;html=1;verticalAlign=bottom;endArrow=open;endSize=8;strokeColor=#ff0000;rounded=0;exitX=0.955;exitY=1.1;exitDx=0;exitDy=0;exitPerimeter=0;" edge="1" parent="1" source="DiJf0q9_dVt4Foqjv9Tr-18">
          <mxGeometry relative="1" as="geometry">
            <mxPoint x="397" y="580" as="targetPoint" />
          </mxGeometry>
        </mxCell>
        <mxCell id="DiJf0q9_dVt4Foqjv9Tr-22" value="" style="shape=line;html=1;strokeWidth=6;strokeColor=#ff0000;" vertex="1" parent="1">
          <mxGeometry x="103" y="690" width="330" height="10" as="geometry" />
        </mxCell>
        <mxCell id="DiJf0q9_dVt4Foqjv9Tr-23" value="" style="edgeStyle=orthogonalEdgeStyle;html=1;verticalAlign=bottom;endArrow=open;endSize=8;strokeColor=#ff0000;rounded=0;" edge="1" source="DiJf0q9_dVt4Foqjv9Tr-22" parent="1">
          <mxGeometry relative="1" as="geometry">
            <mxPoint x="268" y="770" as="targetPoint" />
          </mxGeometry>
        </mxCell>
        <mxCell id="DiJf0q9_dVt4Foqjv9Tr-24" value="" style="rhombus;whiteSpace=wrap;html=1;fontColor=#000000;fillColor=#ffffc0;strokeColor=#ff0000;" vertex="1" parent="1">
          <mxGeometry x="230" y="773" width="80" height="40" as="geometry" />
        </mxCell>
        <mxCell id="DiJf0q9_dVt4Foqjv9Tr-25" value="[Not match]" style="edgeStyle=orthogonalEdgeStyle;html=1;align=left;verticalAlign=bottom;endArrow=open;endSize=8;strokeColor=#ff0000;rounded=0;" edge="1" source="DiJf0q9_dVt4Foqjv9Tr-24" parent="1">
          <mxGeometry x="0.1543" y="-13" relative="1" as="geometry">
            <mxPoint x="160" y="793" as="targetPoint" />
            <mxPoint as="offset" />
          </mxGeometry>
        </mxCell>
        <mxCell id="DiJf0q9_dVt4Foqjv9Tr-26" value="[Match]" style="edgeStyle=orthogonalEdgeStyle;html=1;align=left;verticalAlign=top;endArrow=open;endSize=8;strokeColor=#ff0000;rounded=0;" edge="1" source="DiJf0q9_dVt4Foqjv9Tr-24" parent="1">
          <mxGeometry x="-1" relative="1" as="geometry">
            <mxPoint x="270" y="873" as="targetPoint" />
          </mxGeometry>
        </mxCell>
        <mxCell id="DiJf0q9_dVt4Foqjv9Tr-28" value="" style="ellipse;html=1;shape=endState;fillColor=#000000;strokeColor=#ff0000;" vertex="1" parent="1">
          <mxGeometry x="255" y="877" width="30" height="30" as="geometry" />
        </mxCell>
        <mxCell id="DiJf0q9_dVt4Foqjv9Tr-29" value="Create a message for the mismatch" style="rounded=1;whiteSpace=wrap;html=1;arcSize=40;fontColor=#000000;fillColor=#ffffc0;strokeColor=#ff0000;" vertex="1" parent="1">
          <mxGeometry x="40" y="773" width="120" height="40" as="geometry" />
        </mxCell>
        <mxCell id="DiJf0q9_dVt4Foqjv9Tr-30" value="" style="edgeStyle=orthogonalEdgeStyle;html=1;verticalAlign=bottom;endArrow=open;endSize=8;strokeColor=#ff0000;rounded=0;entryX=-0.233;entryY=0.475;entryDx=0;entryDy=0;entryPerimeter=0;exitX=0.5;exitY=1;exitDx=0;exitDy=0;" edge="1" source="DiJf0q9_dVt4Foqjv9Tr-29" parent="1" target="DiJf0q9_dVt4Foqjv9Tr-28">
          <mxGeometry relative="1" as="geometry">
            <mxPoint x="120" y="330" as="targetPoint" />
            <mxPoint x="40" y="820" as="sourcePoint" />
            <Array as="points">
              <mxPoint x="100" y="890" />
              <mxPoint x="200" y="890" />
              <mxPoint x="200" y="891" />
            </Array>
          </mxGeometry>
        </mxCell>
        <mxCell id="DiJf0q9_dVt4Foqjv9Tr-32" value="Check if the password is valid" style="shape=umlFrame;whiteSpace=wrap;html=1;pointerEvents=0;width=130;height=30;" vertex="1" parent="1">
          <mxGeometry x="20" y="400" width="450" height="530" as="geometry" />
        </mxCell>
      </root>
    </mxGraphModel>
  </diagram>
</mxfile>
